<svg xmlns="http://www.w3.org/2000/svg" viewBox="0 0 48 48">
  <circle cx="24" cy="24" r="22" fill="#FFD21E"/>
  <ellipse cx="17" cy="18" rx="3" ry="4" fill="#000"/>
  <ellipse cx="31" cy="18" rx="3" ry="4" fill="#000"/>
  <circle cx="18" cy="17" r="1.2" fill="#FFF"/>
  <circle cx="32" cy="17" r="1.2" fill="#FFF"/>
  <path d="M16 28c2 4 6 6 8 6s6-2 8-6" stroke="#000" stroke-width="2.5" stroke-linecap="round" fill="none"/>
  <path d="M6 24c0-4 4-6 6-4s2 6-2 8-4-1-4-4zM42 24c0-4-4-6-6-4s-2 6 2 8 4-1 4-4z" fill="#FFB703"/>
</svg>
